<svg width="172" height="130" viewBox="0 0 172 130" xmlns="http://www.w3.org/2000/svg" xmlns:xlink="http://www.w3.org/1999/xlink">
    <defs>
        <path id="a" d="M0 0h54v24H0z"/>
    </defs>
    <g fill="none" fill-rule="evenodd">
        <g transform="translate(0 .6)">
            <mask id="b" fill="#fff">
                <use xlink:href="#a"/>
            </mask>
            <path d="M29.588 24H0V0h54c0 13.254-10.93 24-24.412 24" fill="#F72147" mask="url(#b)"/>
        </g>
        <path d="M29.588 53.6H0v-24h54c0 13.255-10.93 24-24.412 24" fill="#F72147"/>
        <path fill="#FFF" d="M3 117.6v-42h28v7.871H11.424v8.879h19.16v7.87h-19.16v17.38zM49.47 112.692c1.213 0 2.283-.234 3.215-.703a7.013 7.013 0 0 0 2.336-1.866c.626-.773 1.112-1.68 1.455-2.72.344-1.04.516-2.15.516-3.332 0-1.141-.172-2.233-.516-3.271-.343-1.04-.829-1.946-1.455-2.721a7.05 7.05 0 0 0-2.336-1.865c-.932-.469-2.002-.703-3.215-.703-1.214 0-2.275.234-3.185.703a7.446 7.446 0 0 0-2.336 1.865c-.647.775-1.132 1.681-1.456 2.72a10.882 10.882 0 0 0-.485 3.272c0 1.182.16 2.291.485 3.332.324 1.04.809 1.947 1.456 2.72a7.404 7.404 0 0 0 2.336 1.866c.91.47 1.971.703 3.185.703m0 6.908c-2.427 0-4.59-.418-6.492-1.252-1.9-.835-3.518-1.956-4.853-3.363a14.528 14.528 0 0 1-3.063-4.922c-.708-1.875-1.062-3.872-1.062-5.992 0-2.079.354-4.056 1.062-5.93.707-1.876 1.729-3.518 3.063-4.923 1.335-1.406 2.953-2.527 4.853-3.363 1.901-.835 4.065-1.255 6.492-1.255 2.426 0 4.6.42 6.521 1.255 1.921.836 3.55 1.957 4.884 3.363 1.334 1.405 2.356 3.047 3.063 4.922A16.691 16.691 0 0 1 65 104.071c0 2.12-.356 4.117-1.062 5.992a14.528 14.528 0 0 1-3.063 4.922c-1.335 1.407-2.963 2.528-4.884 3.363-1.92.834-4.095 1.252-6.521 1.252M68 118.6V88.352h8.135v4.133c1.11-1.336 2.552-2.483 4.324-3.445 1.772-.96 3.62-1.44 5.541-1.44v7.766c-.598-.126-1.345-.188-2.242-.188-.683 0-1.4.083-2.146.25-.747.167-1.473.407-2.178.72-.704.314-1.345.679-1.922 1.096-.576.418-1.035.877-1.377 1.378V118.6H68zM100.765 117.6c-2.628 0-4.628-.675-5.999-2.03-1.374-1.354-2.06-3.342-2.06-5.97V94.328H88V87.6h4.706v-8h7.53v8H106v6.728h-5.765v13.21c0 .932.226 1.698.677 2.306.45.604 1.088.909 1.913.909.55 0 1.067-.093 1.559-.273.49-.183.832-.374 1.03-.576l1.586 5.819c-.549.523-1.333.968-2.353 1.333-1.02.364-2.314.544-3.882.544M108.77 117.6h7.518V88.03h-7.518v29.57zm3.73-32.754c-1.223 0-2.278-.449-3.166-1.347-.888-.9-1.334-2-1.334-3.307 0-1.305.446-2.397 1.334-3.276.888-.876 1.943-1.316 3.167-1.316 1.261 0 2.328.44 3.197 1.316.866.88 1.302 1.971 1.302 3.276 0 1.307-.436 2.408-1.302 3.307-.869.898-1.936 1.347-3.197 1.347zM123.77 117.6V94.522H119v-6.887h4.77v-1.613c0-3.226.894-5.77 2.683-7.63 1.787-1.861 4.132-2.792 7.034-2.792 1.391 0 2.763.207 4.116.62 1.35.416 2.484 1.138 3.397 2.172l-2.86 4.653c-.797-.828-1.849-1.241-3.16-1.241-1.034 0-1.889.353-2.564 1.054-.676.704-1.016 1.758-1.016 3.164v1.613h5.845v6.887H131.4V117.6h-7.63zM143.463 122.117c.335.165.744.287 1.226.371.481.083.913.124 1.288.124 1.048 0 1.917-.155 2.61-.464.69-.31 1.224-.877 1.603-1.703l1.13-2.534L139 87.6h8.549l7.92 20.784 7.92-20.784H172l-14.269 34.764c-1.131 2.803-2.681 4.702-4.651 5.691-1.97.99-4.253 1.505-6.851 1.545-.463 0-1.11-.04-1.949-.122-.84-.084-1.509-.186-2.011-.31l1.194-7.051z"/>
    </g>
</svg>
